<svg xmlns="http://www.w3.org/2000/svg" xmlns:xlink="http://www.w3.org/1999/xlink" width="250" zoomAndPan="magnify" viewBox="0 0 187.5 30.000001" height="40" preserveAspectRatio="xMidYMid meet" version="1.0"><defs><g><g id="id1"/></g></defs><g fill="rgb(100%, 100%, 100%)" fill-opacity="1"><g transform="translate(2.782255, 21.403626)"><g><path d="M 4.15625 0.28125 C 3.425781 0.28125 2.804688 0.140625 2.296875 -0.140625 C 1.785156 -0.421875 1.398438 -0.789062 1.140625 -1.25 C 0.878906 -1.71875 0.75 -2.226562 0.75 -2.78125 C 0.75 -3.269531 0.832031 -3.710938 1 -4.109375 C 1.164062 -4.503906 1.414062 -4.84375 1.75 -5.125 C 2.09375 -5.40625 2.53125 -5.640625 3.0625 -5.828125 C 3.476562 -5.960938 3.957031 -6.082031 4.5 -6.1875 C 5.050781 -6.289062 5.648438 -6.390625 6.296875 -6.484375 C 6.941406 -6.578125 7.613281 -6.675781 8.3125 -6.78125 L 7.5 -6.3125 C 7.507812 -7.019531 7.351562 -7.539062 7.03125 -7.875 C 6.707031 -8.207031 6.164062 -8.375 5.40625 -8.375 C 4.945312 -8.375 4.503906 -8.265625 4.078125 -8.046875 C 3.660156 -7.835938 3.363281 -7.472656 3.1875 -6.953125 L 1.125 -7.59375 C 1.375 -8.457031 1.847656 -9.148438 2.546875 -9.671875 C 3.253906 -10.191406 4.207031 -10.453125 5.40625 -10.453125 C 6.3125 -10.453125 7.109375 -10.300781 7.796875 -10 C 8.484375 -9.707031 8.992188 -9.226562 9.328125 -8.5625 C 9.515625 -8.195312 9.625 -7.828125 9.65625 -7.453125 C 9.695312 -7.085938 9.71875 -6.679688 9.71875 -6.234375 L 9.71875 0 L 7.734375 0 L 7.734375 -2.203125 L 8.0625 -1.84375 C 7.601562 -1.113281 7.066406 -0.578125 6.453125 -0.234375 C 5.835938 0.109375 5.070312 0.28125 4.15625 0.28125 Z M 4.609375 -1.53125 C 5.128906 -1.53125 5.570312 -1.617188 5.9375 -1.796875 C 6.300781 -1.984375 6.585938 -2.207031 6.796875 -2.46875 C 7.015625 -2.726562 7.160156 -2.972656 7.234375 -3.203125 C 7.359375 -3.492188 7.425781 -3.828125 7.4375 -4.203125 C 7.457031 -4.578125 7.46875 -4.878906 7.46875 -5.109375 L 8.15625 -4.90625 C 7.476562 -4.800781 6.894531 -4.707031 6.40625 -4.625 C 5.914062 -4.539062 5.492188 -4.460938 5.140625 -4.390625 C 4.785156 -4.316406 4.472656 -4.238281 4.203125 -4.15625 C 3.941406 -4.0625 3.71875 -3.953125 3.53125 -3.828125 C 3.351562 -3.703125 3.210938 -3.554688 3.109375 -3.390625 C 3.015625 -3.222656 2.96875 -3.03125 2.96875 -2.8125 C 2.96875 -2.5625 3.03125 -2.335938 3.15625 -2.140625 C 3.28125 -1.953125 3.460938 -1.800781 3.703125 -1.6875 C 3.953125 -1.582031 4.253906 -1.53125 4.609375 -1.53125 Z M 4.609375 -1.53125 "/></g></g></g><g fill="rgb(100%, 100%, 100%)" fill-opacity="1"><g transform="translate(13.628559, 21.403626)"><g><path d="M 1.5 0 L 1.5 -13.84375 L 3.78125 -13.84375 L 3.78125 0 Z M 1.5 0 "/></g></g></g><g fill="rgb(100%, 100%, 100%)" fill-opacity="1"><g transform="translate(18.910484, 21.403626)"><g><path d="M 13.53125 0 L 13.53125 -6.171875 C 13.53125 -6.867188 13.359375 -7.410156 13.015625 -7.796875 C 12.671875 -8.191406 12.203125 -8.390625 11.609375 -8.390625 C 11.242188 -8.390625 10.914062 -8.304688 10.625 -8.140625 C 10.34375 -7.972656 10.113281 -7.726562 9.9375 -7.40625 C 9.769531 -7.082031 9.6875 -6.703125 9.6875 -6.265625 L 8.671875 -6.859375 C 8.671875 -7.554688 8.832031 -8.171875 9.15625 -8.703125 C 9.476562 -9.242188 9.914062 -9.664062 10.46875 -9.96875 C 11.019531 -10.269531 11.632812 -10.421875 12.3125 -10.421875 C 13.4375 -10.421875 14.296875 -10.082031 14.890625 -9.40625 C 15.492188 -8.726562 15.796875 -7.84375 15.796875 -6.75 L 15.796875 0 Z M 1.296875 0 L 1.296875 -10.171875 L 3.296875 -10.171875 L 3.296875 -7.015625 L 3.59375 -7.015625 L 3.59375 0 Z M 7.421875 0 L 7.421875 -6.140625 C 7.421875 -6.859375 7.25 -7.410156 6.90625 -7.796875 C 6.5625 -8.191406 6.09375 -8.390625 5.5 -8.390625 C 4.914062 -8.390625 4.453125 -8.191406 4.109375 -7.796875 C 3.765625 -7.410156 3.59375 -6.898438 3.59375 -6.265625 L 2.5625 -6.9375 C 2.5625 -7.59375 2.722656 -8.1875 3.046875 -8.71875 C 3.378906 -9.25 3.820312 -9.664062 4.375 -9.96875 C 4.9375 -10.269531 5.5625 -10.421875 6.25 -10.421875 C 7.007812 -10.421875 7.644531 -10.257812 8.15625 -9.9375 C 8.664062 -9.613281 9.046875 -9.171875 9.296875 -8.609375 C 9.554688 -8.054688 9.6875 -7.429688 9.6875 -6.734375 L 9.6875 0 Z M 7.421875 0 "/></g></g></g><g fill="rgb(100%, 100%, 100%)" fill-opacity="1"><g transform="translate(35.839, 21.403626)"><g><path d="M 1.5 -11.71875 L 1.5 -13.796875 L 3.78125 -13.796875 L 3.78125 -11.71875 Z M 1.5 0 L 1.5 -10.171875 L 3.78125 -10.171875 L 3.78125 0 Z M 1.5 0 "/></g></g></g><g fill="rgb(100%, 100%, 100%)" fill-opacity="1"><g transform="translate(41.120925, 21.403626)"><g><path d="M 5.59375 4.796875 C 5.03125 4.796875 4.488281 4.707031 3.96875 4.53125 C 3.445312 4.363281 2.976562 4.113281 2.5625 3.78125 C 2.15625 3.445312 1.816406 3.050781 1.546875 2.59375 L 3.640625 1.546875 C 3.835938 1.921875 4.113281 2.195312 4.46875 2.375 C 4.820312 2.550781 5.195312 2.640625 5.59375 2.640625 C 6.070312 2.640625 6.492188 2.554688 6.859375 2.390625 C 7.234375 2.222656 7.519531 1.976562 7.71875 1.65625 C 7.925781 1.332031 8.023438 0.929688 8.015625 0.453125 L 8.015625 -2.4375 L 8.296875 -2.4375 L 8.296875 -10.171875 L 10.28125 -10.171875 L 10.28125 0.484375 C 10.28125 0.742188 10.269531 0.988281 10.25 1.21875 C 10.226562 1.457031 10.191406 1.691406 10.140625 1.921875 C 9.984375 2.578125 9.691406 3.117188 9.265625 3.546875 C 8.835938 3.972656 8.304688 4.285156 7.671875 4.484375 C 7.046875 4.691406 6.351562 4.796875 5.59375 4.796875 Z M 5.390625 0.28125 C 4.453125 0.28125 3.632812 0.046875 2.9375 -0.421875 C 2.25 -0.890625 1.710938 -1.53125 1.328125 -2.34375 C 0.941406 -3.15625 0.75 -4.066406 0.75 -5.078125 C 0.75 -6.109375 0.941406 -7.023438 1.328125 -7.828125 C 1.710938 -8.640625 2.257812 -9.28125 2.96875 -9.75 C 3.675781 -10.21875 4.515625 -10.453125 5.484375 -10.453125 C 6.441406 -10.453125 7.25 -10.21875 7.90625 -9.75 C 8.5625 -9.28125 9.054688 -8.640625 9.390625 -7.828125 C 9.734375 -7.023438 9.90625 -6.109375 9.90625 -5.078125 C 9.90625 -4.066406 9.734375 -3.15625 9.390625 -2.34375 C 9.054688 -1.53125 8.550781 -0.890625 7.875 -0.421875 C 7.207031 0.046875 6.378906 0.28125 5.390625 0.28125 Z M 5.75 -1.75 C 6.351562 -1.75 6.84375 -1.890625 7.21875 -2.171875 C 7.59375 -2.453125 7.863281 -2.84375 8.03125 -3.34375 C 8.207031 -3.84375 8.296875 -4.421875 8.296875 -5.078125 C 8.296875 -5.742188 8.207031 -6.328125 8.03125 -6.828125 C 7.863281 -7.328125 7.597656 -7.71875 7.234375 -8 C 6.867188 -8.28125 6.394531 -8.421875 5.8125 -8.421875 C 5.207031 -8.421875 4.707031 -8.269531 4.3125 -7.96875 C 3.914062 -7.664062 3.625 -7.257812 3.4375 -6.75 C 3.25 -6.25 3.15625 -5.691406 3.15625 -5.078125 C 3.15625 -4.460938 3.242188 -3.898438 3.421875 -3.390625 C 3.609375 -2.890625 3.894531 -2.488281 4.28125 -2.1875 C 4.664062 -1.894531 5.15625 -1.75 5.75 -1.75 Z M 5.75 -1.75 "/></g></g></g><g fill="rgb(100%, 100%, 100%)" fill-opacity="1"><g transform="translate(52.720444, 21.403626)"><g><path d="M 8.34375 0 L 8.34375 -4.890625 C 8.34375 -5.210938 8.320312 -5.566406 8.28125 -5.953125 C 8.238281 -6.347656 8.132812 -6.722656 7.96875 -7.078125 C 7.8125 -7.441406 7.570312 -7.738281 7.25 -7.96875 C 6.9375 -8.207031 6.515625 -8.328125 5.984375 -8.328125 C 5.691406 -8.328125 5.40625 -8.28125 5.125 -8.1875 C 4.84375 -8.09375 4.585938 -7.929688 4.359375 -7.703125 C 4.128906 -7.472656 3.941406 -7.15625 3.796875 -6.75 C 3.660156 -6.351562 3.59375 -5.84375 3.59375 -5.21875 L 2.25 -5.796875 C 2.25 -6.660156 2.414062 -7.441406 2.75 -8.140625 C 3.082031 -8.847656 3.578125 -9.410156 4.234375 -9.828125 C 4.890625 -10.242188 5.691406 -10.453125 6.640625 -10.453125 C 7.398438 -10.453125 8.023438 -10.328125 8.515625 -10.078125 C 9.003906 -9.828125 9.390625 -9.503906 9.671875 -9.109375 C 9.960938 -8.722656 10.175781 -8.3125 10.3125 -7.875 C 10.457031 -7.4375 10.546875 -7.019531 10.578125 -6.625 C 10.617188 -6.238281 10.640625 -5.921875 10.640625 -5.671875 L 10.640625 0 Z M 1.296875 0 L 1.296875 -13.5625 L 3.328125 -13.5625 L 3.328125 -6.421875 L 3.59375 -6.421875 L 3.59375 0 Z M 1.296875 0 "/></g></g></g><g fill="rgb(100%, 100%, 100%)" fill-opacity="1"><g transform="translate(64.498856, 21.403626)"><g><path d="M 7.28125 0 C 6.601562 0.125 5.941406 0.175781 5.296875 0.15625 C 4.660156 0.144531 4.085938 0.03125 3.578125 -0.1875 C 3.066406 -0.414062 2.679688 -0.769531 2.421875 -1.25 C 2.191406 -1.6875 2.066406 -2.132812 2.046875 -2.59375 C 2.035156 -3.050781 2.03125 -3.570312 2.03125 -4.15625 L 2.03125 -12.984375 L 4.296875 -12.984375 L 4.296875 -4.28125 C 4.296875 -3.875 4.300781 -3.515625 4.3125 -3.203125 C 4.320312 -2.898438 4.382812 -2.648438 4.5 -2.453125 C 4.726562 -2.078125 5.085938 -1.867188 5.578125 -1.828125 C 6.078125 -1.785156 6.644531 -1.8125 7.28125 -1.90625 Z M 0.1875 -8.390625 L 0.1875 -10.171875 L 7.28125 -10.171875 L 7.28125 -8.390625 Z M 0.1875 -8.390625 "/></g></g></g><g fill="rgb(100%, 100%, 100%)" fill-opacity="1"><g transform="translate(72.652417, 21.403626)"><g><path d="M 2.65625 4.515625 L 4.609375 -0.859375 L 4.65625 0.71875 L 0.21875 -10.171875 L 2.578125 -10.171875 L 5.71875 -2.109375 L 5.125 -2.109375 L 8.1875 -10.171875 L 10.453125 -10.171875 L 4.78125 4.515625 Z M 2.65625 4.515625 "/></g></g></g><g fill="rgb(100%, 100%, 100%)" fill-opacity="1"><g transform="translate(83.188018, 21.403626)"><g><path d="M 5.734375 0.28125 C 4.679688 0.28125 3.785156 0.046875 3.046875 -0.421875 C 2.304688 -0.890625 1.738281 -1.523438 1.34375 -2.328125 C 0.957031 -3.140625 0.757812 -4.054688 0.75 -5.078125 C 0.757812 -6.117188 0.96875 -7.039062 1.375 -7.84375 C 1.78125 -8.65625 2.351562 -9.289062 3.09375 -9.75 C 3.84375 -10.21875 4.734375 -10.453125 5.765625 -10.453125 C 6.921875 -10.453125 7.894531 -10.160156 8.6875 -9.578125 C 9.488281 -8.992188 10.015625 -8.203125 10.265625 -7.203125 L 8 -6.59375 C 7.820312 -7.132812 7.53125 -7.554688 7.125 -7.859375 C 6.71875 -8.171875 6.253906 -8.328125 5.734375 -8.328125 C 5.140625 -8.328125 4.648438 -8.1875 4.265625 -7.90625 C 3.890625 -7.625 3.609375 -7.238281 3.421875 -6.75 C 3.242188 -6.257812 3.15625 -5.703125 3.15625 -5.078125 C 3.15625 -4.117188 3.367188 -3.335938 3.796875 -2.734375 C 4.234375 -2.140625 4.878906 -1.84375 5.734375 -1.84375 C 6.335938 -1.84375 6.8125 -1.976562 7.15625 -2.25 C 7.507812 -2.53125 7.773438 -2.929688 7.953125 -3.453125 L 10.265625 -2.9375 C 9.953125 -1.90625 9.398438 -1.109375 8.609375 -0.546875 C 7.828125 0.00390625 6.867188 0.28125 5.734375 0.28125 Z M 5.734375 0.28125 "/></g></g></g><g fill="rgb(100%, 100%, 100%)" fill-opacity="1"><g transform="translate(94.024905, 21.403626)"><g><path d="M 4.15625 0.28125 C 3.425781 0.28125 2.804688 0.140625 2.296875 -0.140625 C 1.785156 -0.421875 1.398438 -0.789062 1.140625 -1.25 C 0.878906 -1.71875 0.75 -2.226562 0.75 -2.78125 C 0.75 -3.269531 0.832031 -3.710938 1 -4.109375 C 1.164062 -4.503906 1.414062 -4.84375 1.75 -5.125 C 2.09375 -5.40625 2.53125 -5.640625 3.0625 -5.828125 C 3.476562 -5.960938 3.957031 -6.082031 4.5 -6.1875 C 5.050781 -6.289062 5.648438 -6.390625 6.296875 -6.484375 C 6.941406 -6.578125 7.613281 -6.675781 8.3125 -6.78125 L 7.5 -6.3125 C 7.507812 -7.019531 7.351562 -7.539062 7.03125 -7.875 C 6.707031 -8.207031 6.164062 -8.375 5.40625 -8.375 C 4.945312 -8.375 4.503906 -8.265625 4.078125 -8.046875 C 3.660156 -7.835938 3.363281 -7.472656 3.1875 -6.953125 L 1.125 -7.59375 C 1.375 -8.457031 1.847656 -9.148438 2.546875 -9.671875 C 3.253906 -10.191406 4.207031 -10.453125 5.40625 -10.453125 C 6.3125 -10.453125 7.109375 -10.300781 7.796875 -10 C 8.484375 -9.707031 8.992188 -9.226562 9.328125 -8.5625 C 9.515625 -8.195312 9.625 -7.828125 9.65625 -7.453125 C 9.695312 -7.085938 9.71875 -6.679688 9.71875 -6.234375 L 9.71875 0 L 7.734375 0 L 7.734375 -2.203125 L 8.0625 -1.84375 C 7.601562 -1.113281 7.066406 -0.578125 6.453125 -0.234375 C 5.835938 0.109375 5.070312 0.28125 4.15625 0.28125 Z M 4.609375 -1.53125 C 5.128906 -1.53125 5.570312 -1.617188 5.9375 -1.796875 C 6.300781 -1.984375 6.585938 -2.207031 6.796875 -2.46875 C 7.015625 -2.726562 7.160156 -2.972656 7.234375 -3.203125 C 7.359375 -3.492188 7.425781 -3.828125 7.4375 -4.203125 C 7.457031 -4.578125 7.46875 -4.878906 7.46875 -5.109375 L 8.15625 -4.90625 C 7.476562 -4.800781 6.894531 -4.707031 6.40625 -4.625 C 5.914062 -4.539062 5.492188 -4.460938 5.140625 -4.390625 C 4.785156 -4.316406 4.472656 -4.238281 4.203125 -4.15625 C 3.941406 -4.0625 3.71875 -3.953125 3.53125 -3.828125 C 3.351562 -3.703125 3.210938 -3.554688 3.109375 -3.390625 C 3.015625 -3.222656 2.96875 -3.03125 2.96875 -2.8125 C 2.96875 -2.5625 3.03125 -2.335938 3.15625 -2.140625 C 3.28125 -1.953125 3.460938 -1.800781 3.703125 -1.6875 C 3.953125 -1.582031 4.253906 -1.53125 4.609375 -1.53125 Z M 4.609375 -1.53125 "/></g></g></g><g fill="rgb(100%, 100%, 100%)" fill-opacity="1"><g transform="translate(104.871209, 21.403626)"><g><path d="M 8.34375 0 L 8.34375 -4.890625 C 8.34375 -5.210938 8.320312 -5.566406 8.28125 -5.953125 C 8.238281 -6.347656 8.132812 -6.722656 7.96875 -7.078125 C 7.8125 -7.441406 7.570312 -7.738281 7.25 -7.96875 C 6.9375 -8.207031 6.515625 -8.328125 5.984375 -8.328125 C 5.691406 -8.328125 5.40625 -8.28125 5.125 -8.1875 C 4.84375 -8.09375 4.585938 -7.929688 4.359375 -7.703125 C 4.128906 -7.472656 3.941406 -7.15625 3.796875 -6.75 C 3.660156 -6.351562 3.59375 -5.84375 3.59375 -5.21875 L 2.25 -5.796875 C 2.25 -6.660156 2.414062 -7.441406 2.75 -8.140625 C 3.082031 -8.847656 3.578125 -9.410156 4.234375 -9.828125 C 4.890625 -10.242188 5.691406 -10.453125 6.640625 -10.453125 C 7.398438 -10.453125 8.023438 -10.328125 8.515625 -10.078125 C 9.003906 -9.828125 9.390625 -9.503906 9.671875 -9.109375 C 9.960938 -8.722656 10.175781 -8.3125 10.3125 -7.875 C 10.457031 -7.4375 10.546875 -7.019531 10.578125 -6.625 C 10.617188 -6.238281 10.640625 -5.921875 10.640625 -5.671875 L 10.640625 0 Z M 1.296875 0 L 1.296875 -10.171875 L 3.328125 -10.171875 L 3.328125 -7.015625 L 3.59375 -7.015625 L 3.59375 0 Z M 1.296875 0 "/></g></g></g><g fill="rgb(100%, 100%, 100%)" fill-opacity="1"><g transform="translate(116.649621, 21.403626)"><g><path d="M 5.390625 0.28125 C 4.453125 0.28125 3.632812 0.046875 2.9375 -0.421875 C 2.25 -0.890625 1.710938 -1.53125 1.328125 -2.34375 C 0.941406 -3.15625 0.75 -4.066406 0.75 -5.078125 C 0.75 -6.109375 0.941406 -7.023438 1.328125 -7.828125 C 1.710938 -8.640625 2.257812 -9.28125 2.96875 -9.75 C 3.675781 -10.21875 4.515625 -10.453125 5.484375 -10.453125 C 6.441406 -10.453125 7.25 -10.21875 7.90625 -9.75 C 8.5625 -9.28125 9.054688 -8.640625 9.390625 -7.828125 C 9.734375 -7.023438 9.90625 -6.109375 9.90625 -5.078125 C 9.90625 -4.066406 9.734375 -3.15625 9.390625 -2.34375 C 9.054688 -1.53125 8.550781 -0.890625 7.875 -0.421875 C 7.207031 0.046875 6.378906 0.28125 5.390625 0.28125 Z M 5.75 -1.75 C 6.351562 -1.75 6.84375 -1.890625 7.21875 -2.171875 C 7.59375 -2.453125 7.863281 -2.84375 8.03125 -3.34375 C 8.207031 -3.84375 8.296875 -4.421875 8.296875 -5.078125 C 8.296875 -5.742188 8.207031 -6.328125 8.03125 -6.828125 C 7.863281 -7.328125 7.597656 -7.71875 7.234375 -8 C 6.867188 -8.28125 6.394531 -8.421875 5.8125 -8.421875 C 5.207031 -8.421875 4.707031 -8.269531 4.3125 -7.96875 C 3.914062 -7.664062 3.625 -7.257812 3.4375 -6.75 C 3.25 -6.25 3.15625 -5.691406 3.15625 -5.078125 C 3.15625 -4.460938 3.242188 -3.898438 3.421875 -3.390625 C 3.609375 -2.890625 3.894531 -2.488281 4.28125 -2.1875 C 4.664062 -1.894531 5.15625 -1.75 5.75 -1.75 Z M 8.296875 0 L 8.296875 -7.140625 L 8.015625 -7.140625 L 8.015625 -13.5625 L 10.296875 -13.5625 L 10.296875 0 Z M 8.296875 0 "/></g></g></g><g fill="rgb(100%, 100%, 100%)" fill-opacity="1"><g transform="translate(128.267973, 21.403626)"><g><path d="M 5.9375 0.28125 C 4.90625 0.28125 4 0.0625 3.21875 -0.375 C 2.445312 -0.820312 1.84375 -1.441406 1.40625 -2.234375 C 0.96875 -3.023438 0.75 -3.9375 0.75 -4.96875 C 0.75 -6.082031 0.960938 -7.046875 1.390625 -7.859375 C 1.816406 -8.679688 2.410156 -9.316406 3.171875 -9.765625 C 3.929688 -10.222656 4.8125 -10.453125 5.8125 -10.453125 C 6.863281 -10.453125 7.757812 -10.203125 8.5 -9.703125 C 9.238281 -9.210938 9.785156 -8.519531 10.140625 -7.625 C 10.492188 -6.726562 10.628906 -5.671875 10.546875 -4.453125 L 8.296875 -4.453125 L 8.296875 -5.28125 C 8.285156 -6.382812 8.085938 -7.191406 7.703125 -7.703125 C 7.328125 -8.210938 6.726562 -8.46875 5.90625 -8.46875 C 4.976562 -8.46875 4.285156 -8.175781 3.828125 -7.59375 C 3.378906 -7.019531 3.15625 -6.179688 3.15625 -5.078125 C 3.15625 -4.054688 3.378906 -3.257812 3.828125 -2.6875 C 4.285156 -2.125 4.945312 -1.84375 5.8125 -1.84375 C 6.363281 -1.84375 6.84375 -1.96875 7.25 -2.21875 C 7.65625 -2.46875 7.96875 -2.828125 8.1875 -3.296875 L 10.4375 -2.609375 C 10.039062 -1.703125 9.4375 -0.992188 8.625 -0.484375 C 7.8125 0.0234375 6.914062 0.28125 5.9375 0.28125 Z M 2.4375 -4.453125 L 2.4375 -6.171875 L 9.4375 -6.171875 L 9.4375 -4.453125 Z M 2.4375 -4.453125 "/></g></g></g><g fill="rgb(100%, 100%, 100%)" fill-opacity="1"><g transform="translate(139.603872, 21.403626)"><g><path d="M 1.6875 0 L 1.6875 -2.328125 L 4.015625 -2.328125 L 4.015625 0 Z M 1.6875 0 "/></g></g></g><g fill="rgb(100%, 100%, 100%)" fill-opacity="1"><g transform="translate(145.318894, 21.403626)"><g><path d="M 5.734375 0.28125 C 4.679688 0.28125 3.785156 0.046875 3.046875 -0.421875 C 2.304688 -0.890625 1.738281 -1.523438 1.34375 -2.328125 C 0.957031 -3.140625 0.757812 -4.054688 0.75 -5.078125 C 0.757812 -6.117188 0.96875 -7.039062 1.375 -7.84375 C 1.78125 -8.65625 2.351562 -9.289062 3.09375 -9.75 C 3.84375 -10.21875 4.734375 -10.453125 5.765625 -10.453125 C 6.921875 -10.453125 7.894531 -10.160156 8.6875 -9.578125 C 9.488281 -8.992188 10.015625 -8.203125 10.265625 -7.203125 L 8 -6.59375 C 7.820312 -7.132812 7.53125 -7.554688 7.125 -7.859375 C 6.71875 -8.171875 6.253906 -8.328125 5.734375 -8.328125 C 5.140625 -8.328125 4.648438 -8.1875 4.265625 -7.90625 C 3.890625 -7.625 3.609375 -7.238281 3.421875 -6.75 C 3.242188 -6.257812 3.15625 -5.703125 3.15625 -5.078125 C 3.15625 -4.117188 3.367188 -3.335938 3.796875 -2.734375 C 4.234375 -2.140625 4.878906 -1.84375 5.734375 -1.84375 C 6.335938 -1.84375 6.8125 -1.976562 7.15625 -2.25 C 7.507812 -2.53125 7.773438 -2.929688 7.953125 -3.453125 L 10.265625 -2.9375 C 9.953125 -1.90625 9.398438 -1.109375 8.609375 -0.546875 C 7.828125 0.00390625 6.867188 0.28125 5.734375 0.28125 Z M 5.734375 0.28125 "/></g></g></g><g fill="rgb(100%, 100%, 100%)" fill-opacity="1"><g transform="translate(156.155781, 21.403626)"><g><path d="M 5.8125 0.28125 C 4.789062 0.28125 3.898438 0.0507812 3.140625 -0.40625 C 2.378906 -0.863281 1.789062 -1.492188 1.375 -2.296875 C 0.957031 -3.109375 0.75 -4.035156 0.75 -5.078125 C 0.75 -6.148438 0.960938 -7.085938 1.390625 -7.890625 C 1.816406 -8.691406 2.410156 -9.316406 3.171875 -9.765625 C 3.929688 -10.222656 4.8125 -10.453125 5.8125 -10.453125 C 6.832031 -10.453125 7.722656 -10.222656 8.484375 -9.765625 C 9.242188 -9.304688 9.832031 -8.671875 10.25 -7.859375 C 10.664062 -7.054688 10.875 -6.128906 10.875 -5.078125 C 10.875 -4.023438 10.660156 -3.09375 10.234375 -2.28125 C 9.816406 -1.476562 9.226562 -0.847656 8.46875 -0.390625 C 7.707031 0.0546875 6.820312 0.28125 5.8125 0.28125 Z M 5.8125 -1.84375 C 6.707031 -1.84375 7.375 -2.144531 7.8125 -2.75 C 8.257812 -3.351562 8.484375 -4.128906 8.484375 -5.078125 C 8.484375 -6.066406 8.257812 -6.851562 7.8125 -7.4375 C 7.363281 -8.03125 6.695312 -8.328125 5.8125 -8.328125 C 5.195312 -8.328125 4.691406 -8.1875 4.296875 -7.90625 C 3.910156 -7.632812 3.625 -7.253906 3.4375 -6.765625 C 3.25 -6.285156 3.15625 -5.722656 3.15625 -5.078125 C 3.15625 -4.097656 3.378906 -3.3125 3.828125 -2.71875 C 4.273438 -2.132812 4.9375 -1.84375 5.8125 -1.84375 Z M 5.8125 -1.84375 "/></g></g></g><g fill="rgb(100%, 100%, 100%)" fill-opacity="1"><g transform="translate(167.792966, 21.403626)"><g><path d="M 13.53125 0 L 13.53125 -6.171875 C 13.53125 -6.867188 13.359375 -7.410156 13.015625 -7.796875 C 12.671875 -8.191406 12.203125 -8.390625 11.609375 -8.390625 C 11.242188 -8.390625 10.914062 -8.304688 10.625 -8.140625 C 10.34375 -7.972656 10.113281 -7.726562 9.9375 -7.40625 C 9.769531 -7.082031 9.6875 -6.703125 9.6875 -6.265625 L 8.671875 -6.859375 C 8.671875 -7.554688 8.832031 -8.171875 9.15625 -8.703125 C 9.476562 -9.242188 9.914062 -9.664062 10.46875 -9.96875 C 11.019531 -10.269531 11.632812 -10.421875 12.3125 -10.421875 C 13.4375 -10.421875 14.296875 -10.082031 14.890625 -9.40625 C 15.492188 -8.726562 15.796875 -7.84375 15.796875 -6.75 L 15.796875 0 Z M 1.296875 0 L 1.296875 -10.171875 L 3.296875 -10.171875 L 3.296875 -7.015625 L 3.59375 -7.015625 L 3.59375 0 Z M 7.421875 0 L 7.421875 -6.140625 C 7.421875 -6.859375 7.25 -7.410156 6.90625 -7.796875 C 6.5625 -8.191406 6.09375 -8.390625 5.5 -8.390625 C 4.914062 -8.390625 4.453125 -8.191406 4.109375 -7.796875 C 3.765625 -7.410156 3.59375 -6.898438 3.59375 -6.265625 L 2.5625 -6.9375 C 2.5625 -7.59375 2.722656 -8.1875 3.046875 -8.71875 C 3.378906 -9.25 3.820312 -9.664062 4.375 -9.96875 C 4.9375 -10.269531 5.5625 -10.421875 6.25 -10.421875 C 7.007812 -10.421875 7.644531 -10.257812 8.15625 -9.9375 C 8.664062 -9.613281 9.046875 -9.171875 9.296875 -8.609375 C 9.554688 -8.054688 9.6875 -7.429688 9.6875 -6.734375 L 9.6875 0 Z M 7.421875 0 "/></g></g></g></svg>